<svg version="1.1" id="Layer_1" xmlns="http://www.w3.org/2000/svg" xmlns:xlink="http://www.w3.org/1999/xlink" x="0px" y="0px"
	 width="100%" viewBox="0 0 1000 1000" enable-background="new 0 0 1000 1000" xml:space="preserve">
<path fill="#FFFFFF" opacity="1.000000" stroke="none" 
	d="
M680.000000,1001.000000 
	C453.333344,1001.000000 227.166672,1001.000000 1.000000,1001.000000 
	C1.000000,667.666687 1.000000,334.333344 1.000000,1.000000 
	C334.333344,1.000000 667.666687,1.000000 1001.000000,1.000000 
	C1001.000000,334.333344 1001.000000,667.666687 1001.000000,1001.000000 
	C894.166687,1001.000000 787.333313,1001.000000 680.000000,1001.000000 
M493.643982,805.802307 
	C502.931793,798.726074 511.107635,790.732300 515.765930,779.904541 
	C507.825958,788.260071 499.885956,796.615540 491.288086,805.195618 
	C485.316620,809.375916 478.876404,812.264160 471.437134,812.403076 
	C464.209503,812.538025 458.859283,809.508301 457.629303,802.743713 
	C456.497040,796.516479 456.969666,789.949829 457.250092,783.555237 
	C457.303680,782.333679 459.603241,780.478638 461.122894,780.167419 
	C475.125275,777.299500 486.892090,770.379822 496.748383,760.321899 
	C499.791626,757.216370 502.353729,753.137390 503.768707,749.032654 
	C507.931030,736.958313 500.667877,728.962524 487.249207,731.049683 
	C481.443604,732.910095 475.124542,733.850891 471.619232,739.846313 
	C477.100494,737.415527 482.581726,734.984741 488.865356,732.658447 
	C494.210846,733.393738 496.904266,735.717041 496.872009,740.905212 
	C496.848846,744.627686 496.398071,748.781616 494.702698,751.982849 
	C488.100647,764.449280 477.981598,772.913208 464.091095,776.419128 
	C462.569611,776.803101 460.948883,776.793823 458.586700,777.053467 
	C465.767944,760.227722 475.955688,747.015076 490.886261,737.111816 
	C485.780182,737.552063 480.733093,738.144958 476.681152,740.471191 
	C464.665741,747.369263 455.758728,757.341675 450.607635,770.347107 
	C449.588531,772.920105 449.046814,775.462585 446.581177,774.633789 
	C446.786591,777.746216 447.140656,780.803345 447.157837,783.862366 
	C447.191406,789.839233 446.524078,795.864380 447.069366,801.784546 
	C448.127075,813.267639 456.043304,819.182800 467.483124,817.623840 
	C477.140839,816.307678 485.527893,812.139893 493.643982,805.802307 
M560.255737,731.097229 
	C554.590454,733.012329 548.321777,733.862793 544.969360,739.883972 
	C550.330994,737.460938 555.692627,735.037964 561.865051,732.687439 
	C567.563782,733.278381 570.151733,735.531372 570.138245,741.112793 
	C570.129578,744.670227 569.703857,748.630676 568.110840,751.709656 
	C561.530701,764.427551 551.299805,772.954651 537.216248,776.462219 
	C535.819824,776.810120 534.331055,776.787292 532.009766,777.026855 
	C539.077148,760.066833 549.430115,746.885376 564.357788,736.874207 
	C558.654541,737.625854 553.074829,738.537537 548.610718,741.271057 
	C536.984253,748.390442 528.403442,758.402405 523.338379,771.276245 
	C522.730042,772.822510 520.898743,773.887634 520.393433,774.402405 
	C520.393433,778.102478 520.425720,781.507935 520.386169,784.912659 
	C520.322510,790.397827 519.674561,795.937439 520.229126,801.356262 
	C521.486877,813.644897 529.639771,819.832520 541.797485,817.348267 
	C562.886536,813.038940 577.368408,799.584412 588.571228,782.002808 
	C588.911621,781.468628 588.756470,780.618713 588.832336,779.915955 
	C586.749756,781.173523 585.358765,782.747314 584.224792,784.488464 
	C578.515808,793.253845 571.700378,801.174438 562.586487,806.238098 
	C556.970398,809.358398 550.330811,811.266785 543.931763,812.173706 
	C537.282471,813.116089 532.294373,809.497559 531.079224,802.918030 
	C529.900574,796.535767 530.382019,789.809570 530.578247,783.247620 
	C530.610901,782.154480 532.777344,780.447693 534.179688,780.177734 
	C548.062988,777.506104 559.660645,770.617554 569.554626,760.861084 
	C572.551880,757.905457 575.130676,754.100159 576.700623,750.200684 
	C581.754272,737.648193 574.393066,728.926453 560.255737,731.097229 
M820.099670,733.087891 
	C828.598572,732.125427 832.285706,735.657471 831.329285,744.153809 
	C831.036316,746.756287 830.512756,749.528259 829.301392,751.799438 
	C822.644226,764.280884 812.620117,772.752441 798.772705,776.351990 
	C797.243042,776.749634 795.616882,776.775696 793.170044,777.082764 
	C800.224854,760.041443 810.527039,746.914124 826.325439,737.811707 
	C812.791016,733.439514 789.013611,754.630188 783.516846,774.412109 
	C782.400879,774.412109 781.245850,774.412109 781.205994,774.412109 
	C781.346619,778.129028 781.603210,781.557861 781.576172,784.984497 
	C781.535522,790.134766 780.795715,795.326965 781.239075,800.424316 
	C782.383911,813.585693 790.559204,819.993164 803.505432,817.211731 
	C824.500183,812.701111 839.035522,799.307678 849.952332,781.464417 
	C850.228821,781.012573 850.089233,780.306213 850.143677,779.718506 
	C847.971802,781.063477 846.494141,782.757996 845.285400,784.626465 
	C839.595825,793.421448 832.435120,800.759460 823.704407,806.532288 
	C818.031006,810.283447 811.828918,812.516113 804.934570,812.392395 
	C798.192993,812.271362 793.364685,809.315979 792.139893,802.750854 
	C791.005676,796.671509 791.450256,790.273193 791.461975,784.015808 
	C791.466980,781.317993 793.311096,780.487488 796.008545,779.894653 
	C812.158813,776.345337 825.802979,768.455444 835.555176,754.881470 
	C840.333008,748.231262 840.629761,739.578003 836.898499,735.224304 
	C831.548950,728.982483 824.859070,730.008423 817.331482,732.255188 
	C813.115112,733.996033 808.375488,734.950562 805.690796,738.993164 
	C805.929321,739.388367 806.167786,739.783569 806.406311,740.178772 
	C810.686340,737.836548 814.966370,735.494324 820.099670,733.087891 
M737.633545,754.731934 
	C735.717896,770.437866 738.591125,785.200134 746.480408,798.928345 
	C749.544861,804.260864 753.608765,808.539368 759.755920,810.346313 
	C766.080750,812.205566 775.170410,809.719604 778.171692,805.108215 
	C777.099365,805.108215 776.131836,804.923889 775.260925,805.136230 
	C764.358704,807.794128 759.464600,805.633057 754.593689,795.382751 
	C750.414734,786.588501 747.838318,777.302246 748.015442,767.480469 
	C748.134094,760.901001 748.689026,754.329468 749.044861,747.754272 
	C742.369141,746.044189 741.773438,746.355469 736.612000,753.491516 
	C736.456787,752.771301 736.301575,752.051086 736.105042,751.139282 
	C728.261780,760.834839 720.683411,770.202881 713.105103,779.570984 
	C712.604858,779.216492 712.104614,778.862000 711.604370,778.507507 
	C712.174866,776.828064 712.695496,775.129639 713.324280,773.472290 
	C716.389160,765.393616 719.663086,757.388672 722.504333,749.232666 
	C724.449036,743.650085 722.309448,740.993408 716.479248,740.778381 
	C711.422668,740.591919 707.479431,742.261047 704.705688,746.750488 
	C701.121887,752.550903 697.421265,758.294556 693.473938,763.851685 
	C686.359741,773.867493 678.988647,783.700500 671.825745,793.682251 
	C670.870789,795.013000 670.503967,796.765747 669.864746,798.323120 
	C669.067749,797.653442 668.270691,796.983765 667.473694,796.314087 
	C667.845398,794.963928 668.103821,793.569946 668.606201,792.270264 
	C674.417603,777.234192 680.305176,762.227417 686.075134,747.175598 
	C687.420837,743.665222 689.003662,740.638245 692.827881,739.160645 
	C694.179932,738.638245 695.138428,737.097290 696.276611,736.021362 
	C693.915588,735.908203 691.520081,737.273560 690.626160,736.611450 
	C685.252136,732.631409 680.874939,735.239929 677.858215,739.119873 
	C675.140503,742.615295 672.131531,744.438904 668.090271,745.008545 
	C663.139526,745.706482 661.508606,748.034058 662.416870,753.183533 
	C664.578247,765.438232 664.202087,777.747681 661.125671,789.837402 
	C659.409729,796.580627 657.035461,803.154236 655.180237,809.865784 
	C654.795532,811.257446 655.393250,812.920654 655.538208,814.458679 
	C657.367859,814.013184 659.278442,813.758606 660.989624,813.033447 
	C661.731812,812.718933 662.062317,811.434692 662.581787,810.592041 
	C663.864685,808.510986 664.919006,806.239136 666.468628,804.380188 
	C679.258972,789.036194 692.155457,773.780701 704.978149,758.463562 
	C706.624695,756.496643 708.032043,754.329529 709.550171,752.255188 
	C710.135986,755.857239 710.037354,759.156067 709.331787,762.319519 
	C707.124390,772.215576 704.602600,782.041992 702.432861,791.945740 
	C702.109497,793.421692 703.023987,795.168884 703.365845,796.790527 
	C704.907166,796.025146 706.531982,795.386047 707.956848,794.444336 
	C708.741699,793.925598 709.208435,792.911194 709.788269,792.098572 
	C718.834778,779.418457 727.876343,766.734863 737.633545,754.731934 
M592.921997,177.598328 
	C535.720276,148.856293 477.645782,146.969894 419.088470,172.842728 
	C328.711365,212.774734 282.091919,318.141205 312.733673,412.286530 
	C344.852325,510.969513 444.352112,567.938965 545.596924,544.835571 
	C642.858215,522.641113 711.230103,429.539215 696.481140,325.330353 
	C687.144653,259.363556 651.721313,210.426483 592.921997,177.598328 
M440.034607,783.566528 
	C433.257385,794.248535 426.905853,805.289001 416.975739,813.506836 
	C407.671509,821.206726 399.401794,818.940125 396.263702,807.307007 
	C394.376923,800.312500 392.830383,792.785461 393.353333,785.660828 
	C395.227936,760.121033 398.003052,734.646118 400.569916,709.159973 
	C400.913940,705.744080 400.987305,701.573425 402.933868,699.164917 
	C415.222229,683.960876 428.343109,669.352051 446.194214,660.554504 
	C452.546478,657.423950 460.083649,655.654907 467.178955,655.311646 
	C478.731201,654.752808 484.748444,662.855774 482.770111,674.352966 
	C482.219238,677.554321 481.616577,680.746765 481.037659,683.943298 
	C485.097321,675.806702 486.516510,667.217285 484.154266,658.537598 
	C481.489838,648.747742 472.931213,643.428162 462.984772,645.736267 
	C456.782532,647.175476 450.559753,649.623047 445.078369,652.858459 
	C430.758179,661.310791 418.904572,672.809448 407.858307,685.144592 
	C406.744446,686.388428 405.631226,687.632996 403.880554,689.589172 
	C403.880554,686.098633 403.880554,683.856140 403.880554,681.613708 
	C402.334686,683.851685 401.675079,686.323730 400.846069,688.737610 
	C399.830231,691.695801 399.162231,694.922546 397.500488,697.486633 
	C380.944305,723.032654 364.286743,748.513916 347.506287,773.913330 
	C337.057281,789.729248 326.371399,805.389099 315.718842,821.069458 
	C314.698730,822.571045 313.159363,823.719910 311.861084,825.032532 
	C311.139038,823.585266 311.167603,822.763306 311.485107,822.074524 
	C319.136780,805.476379 320.288727,788.230774 317.476105,770.332336 
	C313.595917,745.640137 310.335419,720.827515 312.134338,695.744202 
	C312.914703,684.863403 313.817749,673.685120 324.892487,666.138550 
	C319.853119,665.392822 316.599976,667.273621 314.584564,670.215332 
	C311.614502,674.550415 308.679565,679.182190 307.059265,684.123596 
	C298.880859,709.064941 297.372070,734.705505 300.545654,760.625793 
	C302.223480,774.329407 304.990479,787.906555 306.453979,801.627380 
	C307.560669,812.003479 309.795380,822.797852 303.003143,832.429199 
	C302.847260,832.650330 303.274048,833.282410 303.500641,833.926086 
	C304.336456,833.492859 305.114258,833.195251 305.770782,832.727478 
	C307.124878,831.762512 308.438293,830.736267 309.726562,829.684021 
	C320.184967,821.141602 328.041077,810.400513 335.349030,799.213745 
	C353.645020,771.207092 371.901733,743.174744 390.197510,715.167908 
	C391.174225,713.672729 392.365112,712.317444 393.456299,710.897095 
	C394.098389,712.597717 393.897858,713.719238 393.642303,714.828064 
	C390.244965,729.569397 386.514923,744.243652 383.531616,759.068176 
	C380.765808,772.812195 379.149628,786.752441 382.049866,800.731506 
	C383.862335,809.467529 387.880981,816.747253 396.975067,819.807129 
	C406.631165,823.056091 415.283569,820.310181 421.348053,812.852966 
	C429.171906,803.232300 435.740906,792.589905 442.799133,782.352295 
	C443.102509,781.912231 442.892639,781.118286 442.956909,779.735291 
	C441.799194,781.203674 441.103210,782.086365 440.034607,783.566528 
M194.496826,833.976013 
	C203.520294,827.224243 213.794876,821.637024 221.350677,813.519165 
	C254.114655,778.318604 274.197632,736.350708 283.760376,689.405212 
	C285.051605,683.066467 288.274628,681.945923 294.478668,681.192566 
	C293.441498,689.781250 293.091522,698.078735 291.357697,706.076172 
	C284.813141,736.263611 271.490387,763.501404 253.853104,788.672729 
	C242.107285,805.435913 228.445419,820.406189 210.942932,831.420959 
	C199.625732,838.543091 187.471176,843.210388 173.860092,843.186768 
	C165.201187,843.171692 158.425537,838.388550 157.155380,829.819153 
	C156.409012,824.783508 157.843643,819.403320 158.470795,814.199036 
	C158.645142,812.752075 159.480087,811.392944 159.935638,809.969116 
	C160.326996,808.745972 160.609497,807.488098 160.940140,806.245544 
	C160.302963,806.021973 159.665787,805.798340 159.028595,805.574707 
	C156.690292,810.931580 153.464005,816.085449 152.184433,821.684265 
	C148.704010,836.913208 157.366821,847.064941 173.056519,847.017090 
	C188.548203,846.969849 202.662170,842.061462 215.176102,833.360901 
	C260.297424,801.989441 286.744202,758.102356 298.648651,705.189514 
	C301.012268,694.683655 300.004303,683.374695 300.114410,672.431702 
	C300.151093,668.784607 298.138550,666.949707 294.086517,669.266357 
	C291.954529,670.485168 289.293488,670.778625 286.424805,671.621033 
	C286.294800,662.663147 287.848541,654.537048 285.770020,646.740234 
	C284.901215,646.760620 284.032440,646.781006 283.163666,646.801392 
	C283.163666,651.176758 283.200897,655.552551 283.156616,659.927551 
	C283.028503,672.576294 282.918335,672.017456 270.704559,674.145142 
	C250.413757,677.679871 230.153091,681.544312 210.097137,686.205383 
	C199.894211,688.576538 190.426193,693.481689 182.744965,701.051819 
	C177.533600,706.187805 175.322998,712.331177 176.623138,719.673279 
	C179.339600,735.013428 188.593552,744.970764 202.608322,750.678894 
	C206.079407,752.092712 210.162613,752.003601 215.257111,752.809998 
	C213.903671,751.314270 213.738297,750.968994 213.480927,750.874634 
	C212.235489,750.417908 210.956482,750.053528 209.705276,749.611511 
	C197.526474,745.309875 188.250351,737.522461 182.662628,725.883118 
	C177.677612,715.499207 180.351837,706.946167 190.311478,701.187195 
	C194.867783,698.552551 199.863449,696.009460 204.959167,695.097717 
	C222.299408,691.995239 239.763458,689.572754 257.199860,687.025024 
	C265.032196,685.880554 272.910980,685.054199 281.070618,684.046204 
	C280.961945,685.516785 280.979614,686.499023 280.806366,687.446350 
	C273.966370,724.845520 260.006165,759.341492 237.396606,789.952515 
	C222.371277,810.295288 206.345566,829.918884 178.983856,834.341248 
	C178.251221,834.459717 177.679214,835.571899 177.032349,836.220642 
	C177.841431,836.834961 178.795975,838.102295 179.436401,837.959595 
	C184.258698,836.885315 189.019211,835.533691 194.496826,833.976013 
M647.656616,693.129456 
	C639.935059,710.238647 632.148926,727.319275 624.557373,744.485901 
	C623.326538,747.269043 621.694824,748.715210 618.715942,748.936096 
	C609.766541,749.599731 600.828308,750.424866 591.873901,751.002869 
	C588.942200,751.192078 585.949646,751.005188 585.208801,754.682556 
	C584.445435,758.471619 586.591797,760.519348 589.919189,761.808167 
	C594.100586,763.427612 598.289856,765.059326 602.347046,766.960205 
	C610.363953,770.716187 612.057068,774.846436 609.742371,783.188354 
	C607.295532,792.006470 604.754517,800.885193 606.983887,810.170593 
	C608.590271,816.861206 614.646118,820.934265 621.032654,818.575867 
	C632.206665,814.449524 641.167419,807.158508 647.468933,796.872314 
	C647.559082,796.725220 647.259644,796.339355 646.915894,795.537415 
	C642.656189,799.155945 638.726257,802.935303 634.345398,806.088135 
	C630.210144,809.064087 625.841736,812.007935 621.134521,813.818359 
	C616.015686,815.786987 612.917786,813.372986 612.992615,807.889648 
	C613.069275,802.271606 612.865967,796.247314 614.763794,791.135437 
	C619.601929,778.103638 625.404053,765.417786 631.185242,752.760071 
	C632.110901,750.733459 634.682983,748.907349 636.897034,748.115295 
	C647.057190,744.480530 657.395935,741.347656 667.587524,737.796204 
	C670.137329,736.907593 672.378723,735.134155 674.761902,733.767395 
	C674.497986,733.233765 674.234070,732.700134 673.970215,732.166504 
	C661.334167,736.436096 648.698120,740.705627 634.603516,745.468079 
	C636.554993,742.306580 637.676025,740.371155 638.913147,738.513062 
	C641.008057,735.366394 643.607361,732.476868 645.233032,729.111328 
	C650.146484,718.939514 654.771240,708.624878 659.319519,698.282837 
	C660.243958,696.180786 660.342529,693.715576 660.821838,691.417786 
	C658.071777,691.082886 655.312683,690.449036 652.575256,690.531677 
	C651.074890,690.576904 649.611084,691.831360 647.656616,693.129456 
z"/>
<path fill="#CA3534" opacity="1.000000" stroke="none" 
	d="
M593.252930,177.766174 
	C651.721313,210.426483 687.144653,259.363556 696.481140,325.330353 
	C711.230103,429.539215 642.858215,522.641113 545.596924,544.835571 
	C444.352112,567.938965 344.852325,510.969513 312.733673,412.286530 
	C282.091919,318.141205 328.711365,212.774734 419.088470,172.842728 
	C477.645782,146.969894 535.720276,148.856293 593.252930,177.766174 
M609.078369,449.466553 
	C609.074829,431.807770 609.164307,414.148285 609.034180,396.490417 
	C608.951538,385.283752 601.407654,376.056976 590.387207,374.432892 
	C573.645325,371.965668 558.415588,374.448761 548.031433,389.853424 
	C547.289673,390.953766 546.321716,391.898895 545.532104,392.970062 
	C535.324585,406.817047 521.359680,413.882477 504.519257,415.934540 
	C497.281799,416.816467 493.345062,421.447327 493.956512,427.869476 
	C494.552338,434.127380 499.579315,437.855103 506.916382,437.070282 
	C521.579285,435.501892 535.126038,430.872253 546.979980,421.841339 
	C548.066833,421.013275 549.245300,420.305359 551.142822,419.029633 
	C551.142822,432.962189 551.142822,445.868195 551.142822,458.689880 
	C570.644226,458.689880 589.717834,458.689880 609.078430,458.689880 
	C609.078430,455.740112 609.078430,453.097992 609.078369,449.466553 
M438.490906,459.000000 
	C442.605408,459.000000 446.719879,459.000000 451.420654,459.000000 
	C451.420654,445.507874 451.420654,432.547577 451.420654,419.215210 
	C469.049438,430.782104 477.825500,434.544830 489.466980,435.665131 
	C486.115967,426.110199 486.231781,424.777283 491.271149,415.202087 
	C490.871735,414.931061 490.499847,414.493713 490.058563,414.406158 
	C475.632263,411.543304 464.308289,403.758362 455.799530,392.031311 
	C446.120178,378.690887 433.957581,372.289185 416.941986,373.784515 
	C402.384552,375.063812 392.970703,383.374451 392.934509,398.065552 
	C392.888184,416.875458 392.916168,435.685547 392.934204,454.495575 
	C392.935577,455.922607 393.112701,457.349457 393.223083,459.000000 
	C408.234680,459.000000 422.863739,459.000000 438.490906,459.000000 
M485.183411,281.721771 
	C485.236877,269.860138 488.936737,266.126801 500.645477,266.123566 
	C507.230438,266.121735 513.815369,266.123230 520.304321,266.123230 
	C521.403076,253.651154 516.441589,246.146896 506.980530,246.053223 
	C485.658875,245.842072 464.332825,245.882095 443.010345,246.048737 
	C435.899261,246.104324 430.176453,251.535782 429.960175,258.649139 
	C429.616150,269.963928 429.607086,281.305481 429.970306,292.619202 
	C430.199982,299.772552 435.932617,304.855560 443.083160,305.131134 
	C446.528015,305.263885 449.982239,305.154022 454.007690,305.154022 
	C454.007690,311.432770 454.007690,317.137634 454.007690,322.842499 
	C454.410004,323.022675 454.812347,323.202820 455.214661,323.382996 
	C457.427338,320.857788 459.978088,318.552216 461.788574,315.765717 
	C466.983612,307.770233 473.582611,303.060333 483.606995,305.094177 
	C484.010284,305.175995 484.503693,304.813721 485.183380,304.579742 
	C485.183380,297.269257 485.183380,289.970184 485.183411,281.721771 
M566.813843,293.508148 
	C566.805847,289.675293 566.971252,285.832489 566.751282,282.011841 
	C566.372314,275.429474 562.485535,271.428528 555.888489,271.369019 
	C538.058594,271.208160 520.225159,271.206360 502.395386,271.375549 
	C495.701019,271.439056 491.854309,275.285187 491.657776,282.023712 
	C491.395538,291.014557 491.398132,300.023407 491.635651,309.015350 
	C491.827515,316.278809 495.803040,319.914001 503.051331,319.987518 
	C510.049896,320.058533 517.060974,319.781219 524.042175,320.136658 
	C526.190674,320.246063 528.697754,321.476898 530.271973,322.992584 
	C533.497681,326.098206 536.203125,329.744171 539.122742,333.167664 
	C539.523193,332.949982 539.923706,332.732269 540.324158,332.514587 
	C540.324158,328.439636 540.324158,324.364685 540.324158,320.440918 
	C541.126160,320.218964 541.438904,320.058868 541.752747,320.056671 
	C546.084839,320.026184 550.417358,320.039459 554.749329,319.998535 
	C562.717102,319.923279 566.639587,316.048401 566.795349,308.002319 
	C566.882385,303.504486 566.812805,299.003601 566.813843,293.508148 
M555.178467,345.219452 
	C555.447327,346.690613 555.640686,348.180328 555.996826,349.630035 
	C559.127258,362.371979 572.337646,370.540161 585.173584,367.697052 
	C598.217468,364.807922 606.655579,352.217285 604.244995,339.240265 
	C601.802368,326.091187 590.716431,317.804443 577.112488,318.958649 
	C564.718140,320.010223 555.563171,330.593201 555.178467,345.219452 
M445.105072,334.593445 
	C438.732361,320.629883 424.250031,314.908051 411.259888,321.221436 
	C398.806427,327.274048 393.737213,342.439331 400.044678,354.773376 
	C405.802124,366.031860 419.330566,371.132904 431.134918,366.496277 
	C443.444214,361.661346 449.166809,349.141327 445.105072,334.593445 
z"/>
<path fill="#CC3C3B" opacity="1.000000" stroke="none" 
	d="
M440.220947,783.267822 
	C441.103210,782.086365 441.799194,781.203674 442.956909,779.735291 
	C442.892639,781.118286 443.102509,781.912231 442.799133,782.352295 
	C435.740906,792.589905 429.171906,803.232300 421.348053,812.852966 
	C415.283569,820.310181 406.631165,823.056091 396.975067,819.807129 
	C387.880981,816.747253 383.862335,809.467529 382.049866,800.731506 
	C379.149628,786.752441 380.765808,772.812195 383.531616,759.068176 
	C386.514923,744.243652 390.244965,729.569397 393.642303,714.828064 
	C393.897858,713.719238 394.098389,712.597717 393.456299,710.897095 
	C392.365112,712.317444 391.174225,713.672729 390.197510,715.167908 
	C371.901733,743.174744 353.645020,771.207092 335.349030,799.213745 
	C328.041077,810.400513 320.184967,821.141602 309.726562,829.684021 
	C308.438293,830.736267 307.124878,831.762512 305.770782,832.727478 
	C305.114258,833.195251 304.336456,833.492859 303.500641,833.926086 
	C303.274048,833.282410 302.847260,832.650330 303.003143,832.429199 
	C309.795380,822.797852 307.560669,812.003479 306.453979,801.627380 
	C304.990479,787.906555 302.223480,774.329407 300.545654,760.625793 
	C297.372070,734.705505 298.880859,709.064941 307.059265,684.123596 
	C308.679565,679.182190 311.614502,674.550415 314.584564,670.215332 
	C316.599976,667.273621 319.853119,665.392822 324.892487,666.138550 
	C313.817749,673.685120 312.914703,684.863403 312.134338,695.744202 
	C310.335419,720.827515 313.595917,745.640137 317.476105,770.332336 
	C320.288727,788.230774 319.136780,805.476379 311.485107,822.074524 
	C311.167603,822.763306 311.139038,823.585266 311.861084,825.032532 
	C313.159363,823.719910 314.698730,822.571045 315.718842,821.069458 
	C326.371399,805.389099 337.057281,789.729248 347.506287,773.913330 
	C364.286743,748.513916 380.944305,723.032654 397.500488,697.486633 
	C399.162231,694.922546 399.830231,691.695801 400.846069,688.737610 
	C401.675079,686.323730 402.334686,683.851685 403.880554,681.613708 
	C403.880554,683.856140 403.880554,686.098633 403.880554,689.589172 
	C405.631226,687.632996 406.744446,686.388428 407.858307,685.144592 
	C418.904572,672.809448 430.758179,661.310791 445.078369,652.858459 
	C450.559753,649.623047 456.782532,647.175476 462.984772,645.736267 
	C472.931213,643.428162 481.489838,648.747742 484.154266,658.537598 
	C486.516510,667.217285 485.097321,675.806702 481.037659,683.943298 
	C481.616577,680.746765 482.219238,677.554321 482.770111,674.352966 
	C484.748444,662.855774 478.731201,654.752808 467.178955,655.311646 
	C460.083649,655.654907 452.546478,657.423950 446.194214,660.554504 
	C428.343109,669.352051 415.222229,683.960876 402.933868,699.164917 
	C400.987305,701.573425 400.913940,705.744080 400.569916,709.159973 
	C398.003052,734.646118 395.227936,760.121033 393.353333,785.660828 
	C392.830383,792.785461 394.376923,800.312500 396.263702,807.307007 
	C399.401794,818.940125 407.671509,821.206726 416.975739,813.506836 
	C426.905853,805.289001 433.257385,794.248535 440.220947,783.267822 
z"/>
<path fill="#CC3E3D" opacity="1.000000" stroke="none" 
	d="
M194.147934,834.122375 
	C189.019211,835.533691 184.258698,836.885315 179.436401,837.959595 
	C178.795975,838.102295 177.841431,836.834961 177.032318,836.220703 
	C177.679214,835.571899 178.251221,834.459717 178.983856,834.341248 
	C206.345566,829.918884 222.371277,810.295288 237.396606,789.952515 
	C260.006165,759.341492 273.966370,724.845520 280.806366,687.446350 
	C280.979614,686.499023 280.961945,685.516785 281.070618,684.046204 
	C272.910980,685.054199 265.032196,685.880554 257.199860,687.025024 
	C239.763458,689.572754 222.299408,691.995239 204.959167,695.097717 
	C199.863449,696.009460 194.867783,698.552551 190.311478,701.187195 
	C180.351837,706.946167 177.677612,715.499207 182.662628,725.883118 
	C188.250351,737.522461 197.526474,745.309875 209.705276,749.611511 
	C210.956482,750.053528 212.235489,750.417908 213.480927,750.874634 
	C213.738297,750.968994 213.903671,751.314270 215.257111,752.809998 
	C210.162613,752.003601 206.079407,752.092712 202.608322,750.678894 
	C188.593552,744.970764 179.339600,735.013428 176.623138,719.673279 
	C175.322998,712.331177 177.533600,706.187805 182.744965,701.051819 
	C190.426193,693.481689 199.894211,688.576538 210.097137,686.205383 
	C230.153091,681.544312 250.413757,677.679871 270.704559,674.145142 
	C282.918335,672.017456 283.028503,672.576294 283.156616,659.927551 
	C283.200897,655.552551 283.163666,651.176758 283.163666,646.801392 
	C284.032440,646.781006 284.901215,646.760620 285.770020,646.740234 
	C287.848541,654.537048 286.294800,662.663147 286.424805,671.621033 
	C289.293488,670.778625 291.954529,670.485168 294.086517,669.266357 
	C298.138550,666.949707 300.151093,668.784607 300.114410,672.431702 
	C300.004303,683.374695 301.012268,694.683655 298.648651,705.189514 
	C286.744202,758.102356 260.297424,801.989441 215.176102,833.360901 
	C202.662170,842.061462 188.548203,846.969849 173.056519,847.017090 
	C157.366821,847.064941 148.704010,836.913208 152.184433,821.684265 
	C153.464005,816.085449 156.690292,810.931580 159.028595,805.574707 
	C159.665787,805.798340 160.302963,806.021973 160.940140,806.245544 
	C160.609497,807.488098 160.326996,808.745972 159.935638,809.969116 
	C159.480087,811.392944 158.645142,812.752075 158.470795,814.199036 
	C157.843643,819.403320 156.409012,824.783508 157.155380,829.819153 
	C158.425537,838.388550 165.201187,843.171692 173.860092,843.186768 
	C187.471176,843.210388 199.625732,838.543091 210.942932,831.420959 
	C228.445419,820.406189 242.107285,805.435913 253.853104,788.672729 
	C271.490387,763.501404 284.813141,736.263611 291.357697,706.076172 
	C293.091522,698.078735 293.441498,689.781250 294.478668,681.192566 
	C288.274628,681.945923 285.051605,683.066467 283.760376,689.405212 
	C274.197632,736.350708 254.114655,778.318604 221.350677,813.519165 
	C213.794876,821.637024 203.520294,827.224243 194.147934,834.122375 
z"/>
<path fill="#CC3B3A" opacity="1.000000" stroke="none" 
	d="
M736.919006,754.052002 
	C727.876343,766.734863 718.834778,779.418457 709.788269,792.098572 
	C709.208435,792.911194 708.741699,793.925598 707.956848,794.444336 
	C706.531982,795.386047 704.907166,796.025146 703.365845,796.790527 
	C703.023987,795.168884 702.109497,793.421692 702.432861,791.945740 
	C704.602600,782.041992 707.124390,772.215576 709.331787,762.319519 
	C710.037354,759.156067 710.135986,755.857239 709.550171,752.255188 
	C708.032043,754.329529 706.624695,756.496643 704.978149,758.463562 
	C692.155457,773.780701 679.258972,789.036194 666.468628,804.380188 
	C664.919006,806.239136 663.864685,808.510986 662.581787,810.592041 
	C662.062317,811.434692 661.731812,812.718933 660.989624,813.033447 
	C659.278442,813.758606 657.367859,814.013184 655.538208,814.458679 
	C655.393250,812.920654 654.795532,811.257446 655.180237,809.865784 
	C657.035461,803.154236 659.409729,796.580627 661.125671,789.837402 
	C664.202087,777.747681 664.578247,765.438232 662.416870,753.183533 
	C661.508606,748.034058 663.139526,745.706482 668.090271,745.008545 
	C672.131531,744.438904 675.140503,742.615295 677.858215,739.119873 
	C680.874939,735.239929 685.252136,732.631409 690.626160,736.611450 
	C691.520081,737.273560 693.915588,735.908203 696.276611,736.021362 
	C695.138428,737.097290 694.179932,738.638245 692.827881,739.160645 
	C689.003662,740.638245 687.420837,743.665222 686.075134,747.175598 
	C680.305176,762.227417 674.417603,777.234192 668.606201,792.270264 
	C668.103821,793.569946 667.845398,794.963928 667.473694,796.314087 
	C668.270691,796.983765 669.067749,797.653442 669.864746,798.323120 
	C670.503967,796.765747 670.870789,795.013000 671.825745,793.682251 
	C678.988647,783.700500 686.359741,773.867493 693.473938,763.851685 
	C697.421265,758.294556 701.121887,752.550903 704.705688,746.750488 
	C707.479431,742.261047 711.422668,740.591919 716.479248,740.778381 
	C722.309448,740.993408 724.449036,743.650085 722.504333,749.232666 
	C719.663086,757.388672 716.389160,765.393616 713.324280,773.472290 
	C712.695496,775.129639 712.174866,776.828064 711.604370,778.507507 
	C712.104614,778.862000 712.604858,779.216492 713.105103,779.570984 
	C720.683411,770.202881 728.261780,760.834839 736.105042,751.139282 
	C736.301575,752.051086 736.456787,752.771301 736.748901,753.793823 
	C736.885742,754.096191 736.919006,754.052002 736.919006,754.052002 
M671.377197,748.058411 
	C665.819824,750.010559 665.795715,750.108826 668.743469,761.596191 
	C670.081848,756.277771 671.121155,752.147888 671.377197,748.058411 
M667.642700,796.573730 
	C667.295837,796.916443 666.948914,797.259094 666.602112,797.601868 
	C667.106323,797.468750 667.610474,797.335571 667.642700,796.573730 
z"/>
<path fill="#CC3C3B" opacity="1.000000" stroke="none" 
	d="
M647.893738,692.834961 
	C649.611084,691.831360 651.074890,690.576904 652.575256,690.531677 
	C655.312683,690.449036 658.071777,691.082886 660.821838,691.417786 
	C660.342529,693.715576 660.243958,696.180786 659.319519,698.282837 
	C654.771240,708.624878 650.146484,718.939514 645.233032,729.111328 
	C643.607361,732.476868 641.008057,735.366394 638.913147,738.513062 
	C637.676025,740.371155 636.554993,742.306580 634.603516,745.468079 
	C648.698120,740.705627 661.334167,736.436096 673.970215,732.166504 
	C674.234070,732.700134 674.497986,733.233765 674.761902,733.767395 
	C672.378723,735.134155 670.137329,736.907593 667.587524,737.796204 
	C657.395935,741.347656 647.057190,744.480530 636.897034,748.115295 
	C634.682983,748.907349 632.110901,750.733459 631.185242,752.760071 
	C625.404053,765.417786 619.601929,778.103638 614.763794,791.135437 
	C612.865967,796.247314 613.069275,802.271606 612.992615,807.889648 
	C612.917786,813.372986 616.015686,815.786987 621.134521,813.818359 
	C625.841736,812.007935 630.210144,809.064087 634.345398,806.088135 
	C638.726257,802.935303 642.656189,799.155945 646.915894,795.537415 
	C647.259644,796.339355 647.559082,796.725220 647.468933,796.872314 
	C641.167419,807.158508 632.206665,814.449524 621.032654,818.575867 
	C614.646118,820.934265 608.590271,816.861206 606.983887,810.170593 
	C604.754517,800.885193 607.295532,792.006470 609.742371,783.188354 
	C612.057068,774.846436 610.363953,770.716187 602.347046,766.960205 
	C598.289856,765.059326 594.100586,763.427612 589.919189,761.808167 
	C586.591797,760.519348 584.445435,758.471619 585.208801,754.682556 
	C585.949646,751.005188 588.942200,751.192078 591.873901,751.002869 
	C600.828308,750.424866 609.766541,749.599731 618.715942,748.936096 
	C621.694824,748.715210 623.326538,747.269043 624.557373,744.485901 
	C632.148926,727.319275 639.935059,710.238647 647.893738,692.834961 
M620.200928,753.318726 
	C612.609558,754.532349 605.018188,755.746033 597.536743,756.942139 
	C602.917053,762.011475 608.061340,766.858398 613.225952,771.724548 
	C615.432617,766.189331 617.826904,760.183411 620.200928,753.318726 
z"/>
<path fill="#CC3D3C" opacity="1.000000" stroke="none" 
	d="
M818.064453,732.214478 
	C824.859070,730.008423 831.548950,728.982483 836.898499,735.224304 
	C840.629761,739.578003 840.333008,748.231262 835.555176,754.881470 
	C825.802979,768.455444 812.158813,776.345337 796.008545,779.894653 
	C793.311096,780.487488 791.466980,781.317993 791.461975,784.015808 
	C791.450256,790.273193 791.005676,796.671509 792.139893,802.750854 
	C793.364685,809.315979 798.192993,812.271362 804.934570,812.392395 
	C811.828918,812.516113 818.031006,810.283447 823.704407,806.532288 
	C832.435120,800.759460 839.595825,793.421448 845.285400,784.626465 
	C846.494141,782.757996 847.971802,781.063477 850.143677,779.718506 
	C850.089233,780.306213 850.228821,781.012573 849.952332,781.464417 
	C839.035522,799.307678 824.500183,812.701111 803.505432,817.211731 
	C790.559204,819.993164 782.383911,813.585693 781.239075,800.424316 
	C780.795715,795.326965 781.535522,790.134766 781.576172,784.984497 
	C781.603210,781.557861 781.346619,778.129028 781.205994,774.412109 
	C781.245850,774.412109 782.400879,774.412109 783.516846,774.412109 
	C789.013611,754.630188 812.791016,733.439514 826.325439,737.811707 
	C810.527039,746.914124 800.224854,760.041443 793.170044,777.082764 
	C795.616882,776.775696 797.243042,776.749634 798.772705,776.351990 
	C812.620117,772.752441 822.644226,764.280884 829.301392,751.799438 
	C830.512756,749.528259 831.036316,746.756287 831.329285,744.153809 
	C832.285706,735.657471 828.598572,732.125427 819.444336,733.003662 
	C818.547485,732.684448 818.305969,732.449463 818.064453,732.214478 
z"/>
<path fill="#CC3C3C" opacity="1.000000" stroke="none" 
	d="
M561.025146,731.153931 
	C574.393066,728.926453 581.754272,737.648193 576.700623,750.200684 
	C575.130676,754.100159 572.551880,757.905457 569.554626,760.861084 
	C559.660645,770.617554 548.062988,777.506104 534.179688,780.177734 
	C532.777344,780.447693 530.610901,782.154480 530.578247,783.247620 
	C530.382019,789.809570 529.900574,796.535767 531.079224,802.918030 
	C532.294373,809.497559 537.282471,813.116089 543.931763,812.173706 
	C550.330811,811.266785 556.970398,809.358398 562.586487,806.238098 
	C571.700378,801.174438 578.515808,793.253845 584.224792,784.488464 
	C585.358765,782.747314 586.749756,781.173523 588.832336,779.915955 
	C588.756470,780.618713 588.911621,781.468628 588.571228,782.002808 
	C577.368408,799.584412 562.886536,813.038940 541.797485,817.348267 
	C529.639771,819.832520 521.486877,813.644897 520.229126,801.356262 
	C519.674561,795.937439 520.322510,790.397827 520.386169,784.912659 
	C520.425720,781.507935 520.393433,778.102478 520.393433,774.402405 
	C520.898743,773.887634 522.730042,772.822510 523.338379,771.276245 
	C528.403442,758.402405 536.984253,748.390442 548.610718,741.271057 
	C553.074829,738.537537 558.654541,737.625854 564.357788,736.874207 
	C549.430115,746.885376 539.077148,760.066833 532.009766,777.026855 
	C534.331055,776.787292 535.819824,776.810120 537.216248,776.462219 
	C551.299805,772.954651 561.530701,764.427551 568.110840,751.709656 
	C569.703857,748.630676 570.129578,744.670227 570.138245,741.112793 
	C570.151733,735.531372 567.563782,733.278381 561.464355,732.407593 
	C561.036133,731.803772 561.023315,731.479126 561.025146,731.153931 
z"/>
<path fill="#CC3C3B" opacity="1.000000" stroke="none" 
	d="
M488.021088,731.122314 
	C500.667877,728.962524 507.931030,736.958313 503.768707,749.032654 
	C502.353729,753.137390 499.791626,757.216370 496.748383,760.321899 
	C486.892090,770.379822 475.125275,777.299500 461.122894,780.167419 
	C459.603241,780.478638 457.303680,782.333679 457.250092,783.555237 
	C456.969666,789.949829 456.497040,796.516479 457.629303,802.743713 
	C458.859283,809.508301 464.209503,812.538025 471.437134,812.403076 
	C478.876404,812.264160 485.316620,809.375916 491.840057,805.196594 
	C492.682220,805.389038 492.881653,805.649902 492.990326,805.980164 
	C485.527893,812.139893 477.140839,816.307678 467.483124,817.623840 
	C456.043304,819.182800 448.127075,813.267639 447.069366,801.784546 
	C446.524078,795.864380 447.191406,789.839233 447.157837,783.862366 
	C447.140656,780.803345 446.786591,777.746216 446.581177,774.633789 
	C449.046814,775.462585 449.588531,772.920105 450.607635,770.347107 
	C455.758728,757.341675 464.665741,747.369263 476.681152,740.471191 
	C480.733093,738.144958 485.780182,737.552063 490.886261,737.111816 
	C475.955688,747.015076 465.767944,760.227722 458.586700,777.053467 
	C460.948883,776.793823 462.569611,776.803101 464.091095,776.419128 
	C477.981598,772.913208 488.100647,764.449280 494.702698,751.982849 
	C496.398071,748.781616 496.848846,744.627686 496.872009,740.905212 
	C496.904266,735.717041 494.210846,733.393738 488.465454,732.367310 
	C488.025726,731.759338 488.010895,731.441406 488.021088,731.122314 
z"/>
<path fill="#CC3A39" opacity="1.000000" stroke="none" 
	d="
M736.864441,754.113831 
	C741.773438,746.355469 742.369141,746.044189 749.046753,747.754333 
	C748.689026,754.329468 748.134094,760.901001 748.015442,767.480469 
	C747.838318,777.302246 750.414734,786.588501 754.593689,795.382751 
	C759.464600,805.633057 764.358704,807.794128 775.260925,805.136230 
	C776.131836,804.923889 777.099365,805.108215 778.171692,805.108215 
	C775.170410,809.719604 766.080750,812.205566 759.755920,810.346313 
	C753.608765,808.539368 749.544861,804.260864 746.480408,798.928345 
	C738.591125,785.200134 735.717896,770.437866 737.276245,754.391968 
	C736.919006,754.052002 736.885742,754.096191 736.864441,754.113831 
z"/>
<path fill="#D04D4C" opacity="1.000000" stroke="none" 
	d="
M493.317139,805.891235 
	C492.881653,805.649902 492.682220,805.389038 492.169006,805.084290 
	C499.885956,796.615540 507.825958,788.260071 515.765930,779.904541 
	C511.107635,790.732300 502.931793,798.726074 493.317139,805.891235 
z"/>
<path fill="#D25554" opacity="1.000000" stroke="none" 
	d="
M560.640442,731.125610 
	C561.023315,731.479126 561.036133,731.803772 561.058960,732.371338 
	C555.692627,735.037964 550.330994,737.460938 544.969360,739.883972 
	C548.321777,733.862793 554.590454,733.012329 560.640442,731.125610 
z"/>
<path fill="#D25554" opacity="1.000000" stroke="none" 
	d="
M487.635132,731.085999 
	C488.010895,731.441406 488.025726,731.759338 488.064270,732.315002 
	C482.581726,734.984741 477.100494,737.415527 471.619232,739.846313 
	C475.124542,733.850891 481.443604,732.910095 487.635132,731.085999 
z"/>
<path fill="#D25554" opacity="1.000000" stroke="none" 
	d="
M817.697998,732.234863 
	C818.305969,732.449463 818.547485,732.684448 819.017700,733.035767 
	C814.966370,735.494324 810.686340,737.836548 806.406311,740.178772 
	C806.167786,739.783569 805.929321,739.388367 805.690796,738.993164 
	C808.375488,734.950562 813.115112,733.996033 817.697998,732.234863 
z"/>
<path fill="#FFFEFE" opacity="1.000000" stroke="none" 
	d="
M609.078369,449.961182 
	C609.078430,453.097992 609.078430,455.740112 609.078430,458.689880 
	C589.717834,458.689880 570.644226,458.689880 551.142822,458.689880 
	C551.142822,445.868195 551.142822,432.962189 551.142822,419.029633 
	C549.245300,420.305359 548.066833,421.013275 546.979980,421.841339 
	C535.126038,430.872253 521.579285,435.501892 506.916382,437.070282 
	C499.579315,437.855103 494.552338,434.127380 493.956512,427.869476 
	C493.345062,421.447327 497.281799,416.816467 504.519257,415.934540 
	C521.359680,413.882477 535.324585,406.817047 545.532104,392.970062 
	C546.321716,391.898895 547.289673,390.953766 548.031433,389.853424 
	C558.415588,374.448761 573.645325,371.965668 590.387207,374.432892 
	C601.407654,376.056976 608.951538,385.283752 609.034180,396.490417 
	C609.164307,414.148285 609.074829,431.807770 609.078369,449.961182 
z"/>
<path fill="#FFFEFE" opacity="1.000000" stroke="none" 
	d="
M437.991852,459.000000 
	C422.863739,459.000000 408.234680,459.000000 393.223083,459.000000 
	C393.112701,457.349457 392.935577,455.922607 392.934204,454.495575 
	C392.916168,435.685547 392.888184,416.875458 392.934509,398.065552 
	C392.970703,383.374451 402.384552,375.063812 416.941986,373.784515 
	C433.957581,372.289185 446.120178,378.690887 455.799530,392.031311 
	C464.308289,403.758362 475.632263,411.543304 490.058563,414.406158 
	C490.499847,414.493713 490.871735,414.931061 491.271149,415.202087 
	C486.231781,424.777283 486.115967,426.110199 489.466980,435.665131 
	C477.825500,434.544830 469.049438,430.782104 451.420654,419.215210 
	C451.420654,432.547577 451.420654,445.507874 451.420654,459.000000 
	C446.719879,459.000000 442.605408,459.000000 437.991852,459.000000 
z"/>
<path fill="#FFFEFE" opacity="1.000000" stroke="none" 
	d="
M485.183411,282.196442 
	C485.183380,289.970184 485.183380,297.269257 485.183380,304.579742 
	C484.503693,304.813721 484.010284,305.175995 483.606995,305.094177 
	C473.582611,303.060333 466.983612,307.770233 461.788574,315.765717 
	C459.978088,318.552216 457.427338,320.857788 455.214661,323.382996 
	C454.812347,323.202820 454.410004,323.022675 454.007690,322.842499 
	C454.007690,317.137634 454.007690,311.432770 454.007690,305.154022 
	C449.982239,305.154022 446.528015,305.263885 443.083160,305.131134 
	C435.932617,304.855560 430.199982,299.772552 429.970306,292.619202 
	C429.607086,281.305481 429.616150,269.963928 429.960175,258.649139 
	C430.176453,251.535782 435.899261,246.104324 443.010345,246.048737 
	C464.332825,245.882095 485.658875,245.842072 506.980530,246.053223 
	C516.441589,246.146896 521.403076,253.651154 520.304321,266.123230 
	C513.815369,266.123230 507.230438,266.121735 500.645477,266.123566 
	C488.936737,266.126801 485.236877,269.860138 485.183411,282.196442 
z"/>
<path fill="#FEFDFD" opacity="1.000000" stroke="none" 
	d="
M566.813843,294.006104 
	C566.812805,299.003601 566.882385,303.504486 566.795349,308.002319 
	C566.639587,316.048401 562.717102,319.923279 554.749329,319.998535 
	C550.417358,320.039459 546.084839,320.026184 541.752747,320.056671 
	C541.438904,320.058868 541.126160,320.218964 540.324158,320.440918 
	C540.324158,324.364685 540.324158,328.439636 540.324158,332.514587 
	C539.923706,332.732269 539.523193,332.949982 539.122742,333.167664 
	C536.203125,329.744171 533.497681,326.098206 530.271973,322.992584 
	C528.697754,321.476898 526.190674,320.246063 524.042175,320.136658 
	C517.060974,319.781219 510.049896,320.058533 503.051331,319.987518 
	C495.803040,319.914001 491.827515,316.278809 491.635651,309.015350 
	C491.398132,300.023407 491.395538,291.014557 491.657776,282.023712 
	C491.854309,275.285187 495.701019,271.439056 502.395386,271.375549 
	C520.225159,271.206360 538.058594,271.208160 555.888489,271.369019 
	C562.485535,271.428528 566.372314,275.429474 566.751282,282.011841 
	C566.971252,285.832489 566.805847,289.675293 566.813843,294.006104 
z"/>
<path fill="#FEFDFD" opacity="1.000000" stroke="none" 
	d="
M555.159424,344.788666 
	C555.563171,330.593201 564.718140,320.010223 577.112488,318.958649 
	C590.716431,317.804443 601.802368,326.091187 604.244995,339.240265 
	C606.655579,352.217285 598.217468,364.807922 585.173584,367.697052 
	C572.337646,370.540161 559.127258,362.371979 555.996826,349.630035 
	C555.640686,348.180328 555.447327,346.690613 555.159424,344.788666 
z"/>
<path fill="#FEFDFD" opacity="1.000000" stroke="none" 
	d="
M445.241943,334.963348 
	C449.166809,349.141327 443.444214,361.661346 431.134918,366.496277 
	C419.330566,371.132904 405.802124,366.031860 400.044678,354.773376 
	C393.737213,342.439331 398.806427,327.274048 411.259888,321.221436 
	C424.250031,314.908051 438.732361,320.629883 445.241943,334.963348 
z"/>
<path fill="#FAEEED" opacity="1.000000" stroke="none" 
	d="
M671.768799,748.038208 
	C671.121155,752.147888 670.081848,756.277771 668.743469,761.596191 
	C665.795715,750.108826 665.819824,750.010559 671.768799,748.038208 
z"/>
<path fill="#FFFFFF" opacity="1.000000" stroke="none" 
	d="
M667.878662,796.888062 
	C667.610474,797.335571 667.106323,797.468750 666.602051,797.601807 
	C666.948914,797.259094 667.295837,796.916443 667.878662,796.888062 
z"/>
<path fill="#FDF6F6" opacity="1.000000" stroke="none" 
	d="
M620.211060,753.748108 
	C617.826904,760.183411 615.432617,766.189331 613.225952,771.724548 
	C608.061340,766.858398 602.917053,762.011475 597.536743,756.942139 
	C605.018188,755.746033 612.609558,754.532349 620.211060,753.748108 
z"/>
</svg>